<svg version="1.1" id="Layer_1" xmlns="http://www.w3.org/2000/svg" xmlns:xlink="http://www.w3.org/1999/xlink" x="0px" y="0px"
	 width="100%" viewBox="0 0 419 423" enable-background="new 0 0 419 423" xml:space="preserve">
<path fill="#555555" opacity="1.000000" stroke="none" 
	d="
M420.000000,94.000000 
	C420.000000,202.999985 419.979279,311.500000 420.095398,419.999878 
	C420.099060,423.423798 419.423859,424.097748 415.999939,424.094971 
	C279.000061,423.983551 142.000061,423.983551 5.000166,424.094971 
	C1.576543,424.097748 0.902292,423.424011 0.905046,420.000000 
	C1.016302,281.666779 1.016300,143.333435 0.905077,5.000216 
	C0.902325,1.576708 1.575832,0.902238 4.999937,0.905024 
	C141.999832,1.016469 278.999817,1.016458 415.999725,0.905068 
	C419.423157,0.902285 420.120148,1.572471 420.099945,5.000399 
	C419.926056,34.499439 420.000000,63.999935 420.000000,94.000000 
z"/>
<path fill="#1F1F1F" opacity="1.000000" stroke="none" 
	d="
M323.502686,412.571289 
	C314.878113,412.896393 306.726929,413.003082 298.575714,413.001709 
	C232.351959,412.990540 166.128204,412.959106 99.435738,412.886841 
	C95.092682,410.956726 90.970711,412.108398 86.997330,412.055573 
	C65.183235,411.765594 43.355495,412.180908 21.568136,410.694153 
	C16.137314,410.323547 14.126837,407.885864 13.285509,402.595093 
	C11.631435,392.193298 12.800876,381.735016 12.307777,371.309967 
	C11.577264,355.865387 12.340657,340.381714 11.426136,324.476379 
	C11.103606,316.377350 10.996908,308.725342 10.998295,301.073364 
	C11.010322,234.683578 11.041760,168.293793 11.114747,101.435303 
	C12.919939,96.860168 11.815628,92.564156 11.925877,88.362488 
	C12.492561,66.765579 12.020554,45.152405 13.161255,23.557802 
	C13.484803,17.432730 16.764118,14.240450 22.629946,13.856127 
	C35.443600,13.016588 48.288555,14.025818 61.102905,13.317739 
	C73.420120,12.637132 85.757408,13.457624 98.520279,12.428595 
	C106.622620,12.103702 114.274612,11.996916 121.926598,11.998300 
	C188.316406,12.010310 254.706207,12.041747 321.564697,12.114714 
	C328.388672,14.003522 334.886597,12.807683 341.310333,12.970898 
	C357.392456,13.379513 373.479340,13.657070 389.566376,13.850241 
	C392.291870,13.882970 395.095093,13.644912 397.743408,13.849427 
	C406.339111,14.513226 409.829529,14.965393 410.016693,26.926363 
	C410.398071,51.298618 410.863220,75.669418 411.572510,100.505432 
	C411.895172,109.121368 412.003021,117.272461 412.001587,125.423546 
	C411.990234,190.981033 411.958282,256.538513 411.885284,322.564697 
	C410.030914,328.849731 411.185120,334.806152 411.078461,340.692352 
	C410.709564,361.049316 410.253448,381.404938 409.985168,401.763947 
	C409.917816,406.873596 406.687714,410.565125 400.381409,410.786621 
	C374.918274,411.681091 349.440247,411.619110 323.502686,412.571289 
z"/>
<path fill="#1B1B1B" opacity="1.000000" stroke="none" 
	d="
M411.878540,100.505280 
	C409.792297,98.800957 410.003326,96.067314 410.017029,93.418167 
	C410.132477,71.120644 408.657227,48.873020 407.925110,26.602419 
	C407.668579,18.798742 405.087097,16.289671 397.132568,16.061731 
	C374.526276,15.413936 351.948547,13.836479 329.317688,13.979505 
	C327.002838,13.994134 324.619934,14.162570 322.318726,12.390585 
	C350.504028,12.099094 378.974945,12.089979 407.444824,11.911636 
	C411.431976,11.886661 412.086578,13.762862 412.073181,17.122633 
	C411.962891,44.761612 411.956848,72.401009 411.878540,100.505280 
z"/>
<path fill="#1B1B1B" opacity="1.000000" stroke="none" 
	d="
M323.494385,412.880188 
	C325.044159,410.923737 327.588776,411.008209 330.089447,411.016266 
	C352.743164,411.089050 375.349243,409.603790 397.980408,408.940948 
	C405.199829,408.729523 407.739136,406.086914 407.955200,398.716858 
	C408.628448,375.752808 410.130402,352.813538 410.021545,329.825714 
	C410.011322,327.665894 409.941895,325.461700 411.609436,323.318726 
	C411.901031,351.504059 411.910339,379.975067 412.088654,408.444977 
	C412.113617,412.431976 410.236938,413.086639 406.877289,413.073273 
	C379.238220,412.963440 351.598755,412.957794 323.494385,412.880188 
z"/>
<path fill="#1B1B1B" opacity="1.000000" stroke="none" 
	d="
M98.505577,12.119978 
	C96.961578,14.071671 94.422882,14.022863 91.929115,13.978831 
	C71.984909,13.626671 52.087528,15.389825 32.133091,15.120755 
	C17.230940,14.919813 14.108871,17.894743 14.176423,32.899563 
	C14.266242,52.850174 12.671886,72.750435 12.974186,92.694649 
	C13.013970,95.319435 13.357878,98.057587 11.390657,100.681290 
	C11.099161,72.829269 11.090653,44.691608 10.911705,16.555035 
	C10.886346,12.567688 12.762909,11.913589 16.122728,11.927153 
	C43.428421,12.037402 70.734535,12.042499 98.505577,12.119978 
z"/>
<path fill="#1B1B1B" opacity="1.000000" stroke="none" 
	d="
M11.119831,324.494385 
	C13.072514,326.039642 12.948266,328.578644 12.990600,331.075104 
	C13.331404,351.172394 13.683148,371.269470 14.010653,391.367004 
	C14.264485,406.943573 17.130941,409.751068 32.893967,409.996033 
	C52.659142,410.303192 72.423431,410.667877 92.187965,411.015198 
	C94.344635,411.053070 96.543709,410.944000 98.681854,412.610931 
	C71.162628,412.902252 43.357880,412.909760 15.554237,413.088684 
	C11.566454,413.114319 10.913987,411.235748 10.927329,407.876495 
	C11.037112,380.237701 11.042456,352.598480 11.119831,324.494385 
z"/>
<path fill="#2A2A2A" opacity="1.000000" stroke="none" 
	d="
M16.063547,159.354156 
	C15.969069,158.547668 15.971433,158.106262 15.979331,157.333847 
	C17.077116,156.131500 16.624203,155.168762 16.141428,153.803650 
	C16.078804,150.192383 15.704004,146.980728 16.168480,143.353928 
	C17.234116,137.806137 18.131067,132.668198 17.013939,127.031509 
	C16.618351,125.330612 17.590986,123.958099 16.948429,122.250099 
	C18.621735,117.087990 18.699724,112.286263 17.584106,107.021492 
	C17.240446,105.956650 17.397718,105.351540 17.748959,104.306206 
	C21.747166,92.040810 22.626446,78.917023 32.024860,69.319626 
	C32.889034,68.437164 33.899689,67.876770 35.454521,67.366226 
	C36.696129,66.987656 37.609550,66.838104 38.179047,67.544167 
	C41.863487,72.112206 45.959675,76.445206 46.961517,82.860474 
	C40.034000,93.443443 33.923977,104.010460 28.214191,114.803452 
	C25.672865,119.607231 25.193001,124.977783 24.632036,130.288208 
	C20.687956,167.625198 21.167397,205.102509 21.686979,242.538605 
	C21.954273,261.797150 22.472126,281.137299 25.500307,300.262268 
	C26.133764,304.262909 27.530939,307.945526 29.360867,311.545197 
	C47.612617,347.448242 75.497856,373.859344 110.018013,393.832336 
	C116.279915,397.455414 123.007812,398.704102 130.022903,399.439850 
	C154.554901,402.012756 179.168915,402.426941 203.801666,402.534210 
	C209.674286,402.559753 210.226379,403.351196 208.384186,408.730652 
	C196.258026,409.125702 184.561279,409.051819 172.432037,408.889954 
	C167.603043,408.218719 163.245514,407.022308 158.354355,407.936401 
	C157.547806,408.030884 157.106552,408.028442 156.334381,408.020386 
	C154.898163,406.689484 153.671616,407.142792 152.030945,407.812622 
	C148.384079,407.969727 145.138794,408.286682 141.473663,407.839172 
	C136.207718,406.901733 131.371109,405.821472 126.016098,406.989563 
	C124.321938,407.381287 122.955872,406.409180 121.257286,407.052490 
	C116.163231,405.391632 111.420975,405.300049 106.224899,406.402283 
	C105.216728,406.738678 104.648979,406.622589 103.683182,406.268127 
	C102.616516,405.710510 102.006195,407.021637 101.182419,406.210968 
	C97.804085,402.886383 93.234589,403.021423 89.026184,402.635254 
	C84.131180,402.186127 80.148163,400.053375 76.355957,397.305908 
	C61.468063,386.519501 47.824673,374.345886 36.223705,360.054993 
	C31.834002,354.647430 27.970133,348.779266 24.292526,342.843506 
	C22.422897,339.825867 21.669460,336.373444 21.198101,332.776489 
	C20.720337,329.130646 21.426632,324.890472 17.735266,322.189484 
	C17.714382,322.174164 16.782455,320.820404 17.626915,319.886597 
	C17.812117,318.972412 17.705090,318.417755 17.373917,317.464844 
	C18.512388,312.289978 18.803179,307.539642 17.166748,302.421448 
	C16.519650,300.708160 17.445004,299.281006 16.919384,297.559509 
	C17.933638,292.025879 17.406254,286.956116 16.198109,281.522583 
	C15.953106,278.119629 16.112858,275.097076 15.932214,271.673401 
	C16.251366,270.046692 17.446529,268.959137 16.248205,267.281708 
	C15.979259,266.555725 15.973413,266.114624 15.967099,265.342712 
	C17.121126,260.553101 15.948017,256.229614 15.092272,251.469116 
	C15.121696,225.312561 14.783650,199.566864 15.114983,173.395844 
	C15.790407,168.582962 16.974276,164.234589 16.063547,159.354156 
z"/>
<path fill="#262626" opacity="1.000000" stroke="none" 
	d="
M406.623535,269.750854 
	C407.343750,271.451508 407.910980,272.917664 407.895996,274.377838 
	C407.705231,293.018951 408.609283,311.660339 407.306274,330.306305 
	C406.460022,342.415283 407.160858,354.599792 406.041199,366.725708 
	C405.123260,376.666748 404.552917,386.639435 403.774475,396.593903 
	C403.374603,401.707947 400.477142,404.408997 395.413116,404.802856 
	C378.823547,406.093353 362.249023,407.581299 345.601288,408.019684 
	C322.979126,408.615387 300.360779,409.356537 277.738983,409.967041 
	C274.955841,410.042206 272.026398,410.451294 269.271362,408.288818 
	C268.511200,407.580627 268.146637,407.038849 267.945740,405.926147 
	C268.606750,403.769318 269.682617,402.706512 272.028290,402.626587 
	C274.671082,402.465698 276.851837,402.504791 279.462708,402.121277 
	C281.659332,401.961761 282.060272,403.869934 283.774567,404.536560 
	C287.028503,405.489471 289.794464,405.992249 292.228149,403.462006 
	C293.157745,402.495514 294.658234,402.786499 296.372986,402.648926 
	C298.343048,402.695923 299.843323,402.517242 301.776306,402.055969 
	C302.892761,401.973236 303.757507,401.746277 304.172211,402.129730 
	C306.819489,404.577576 309.312653,404.415924 311.952911,402.099792 
	C312.506927,401.613770 313.534180,401.714447 314.810730,401.528931 
	C315.872589,401.371063 316.474121,401.264618 317.520752,401.098633 
	C323.987579,404.303070 330.467529,403.718811 336.653931,402.411316 
	C356.608154,398.193848 357.260559,397.649933 373.483398,382.335510 
	C380.990936,375.248352 387.712860,367.446350 394.202393,359.438141 
	C396.314697,356.831573 398.459961,353.988800 398.648773,350.650421 
	C399.044128,343.659973 401.850708,337.159363 402.134705,330.096313 
	C402.289368,326.249786 402.124146,322.963959 400.049255,319.337769 
	C400.134705,318.270386 400.232117,317.665070 400.406616,316.607483 
	C400.591492,314.998230 400.370087,313.450073 401.060120,312.781403 
	C404.230957,309.708496 402.501495,306.893982 400.977112,303.513733 
	C401.412628,301.184967 401.873077,299.338715 401.695312,296.944031 
	C401.831818,294.259888 401.896912,292.213989 403.359192,290.123596 
	C405.547699,286.995087 404.156799,283.187012 403.959534,279.187134 
	C404.240051,276.051971 404.338409,273.356506 405.081421,270.284119 
	C405.593994,269.741364 405.896973,269.627472 406.623535,269.750854 
z"/>
<path fill="#262626" opacity="1.000000" stroke="none" 
	d="
M268.724426,17.343216 
	C270.451538,16.656258 271.917664,16.089098 273.377808,16.104029 
	C292.018524,16.294630 310.659515,15.390459 329.305054,16.693762 
	C341.413818,17.540150 353.598083,16.838387 365.723724,17.958681 
	C375.664490,18.877113 385.636963,19.447531 395.591309,20.224924 
	C400.705353,20.624311 403.364288,23.525440 403.814362,28.582287 
	C405.230652,44.495934 406.473785,60.419781 407.009186,76.393303 
	C407.773285,99.190025 408.281067,121.989632 408.008820,144.800980 
	C407.975098,147.625824 408.190094,150.473907 407.176575,153.620422 
	C406.743561,154.166779 406.440094,154.321609 405.637634,154.297119 
	C404.498291,151.243271 405.103302,148.254593 404.384583,144.920868 
	C404.521088,138.982437 404.645966,133.513000 403.567627,127.650154 
	C403.334991,125.532623 403.304688,123.846062 402.815186,121.782181 
	C402.902863,108.373848 403.871277,95.335701 399.723450,82.708443 
	C399.649353,82.482880 399.976624,82.171959 399.979218,81.850922 
	C400.076233,69.814728 392.596741,61.747490 385.344055,53.428368 
	C377.296387,44.197353 368.155273,36.285557 358.156647,29.292046 
	C355.678345,27.558617 353.110992,25.628038 350.123047,25.458868 
	C343.076233,25.059896 336.409760,22.674873 329.392578,21.982317 
	C325.413391,21.589592 322.170258,21.956083 318.461548,23.960239 
	C317.381897,23.889034 316.771301,23.795256 315.709961,23.613762 
	C310.845459,23.622669 307.348724,19.123421 302.125671,21.064171 
	C300.005859,20.955273 298.311096,20.967806 296.257599,20.403358 
	C290.238617,19.487787 284.620850,19.404993 278.542908,19.557945 
	C276.896240,19.130991 275.747498,20.074097 274.092743,19.759636 
	C272.131714,19.840527 270.533051,20.702770 268.854004,19.012297 
	C268.507599,18.359936 268.484100,18.046741 268.724426,17.343216 
z"/>
<path fill="#262626" opacity="1.000000" stroke="none" 
	d="
M19.275400,104.673996 
	C19.001377,105.444611 19.001051,105.889008 19.000492,106.666702 
	C18.743162,111.735718 19.427565,116.498085 18.300201,121.608925 
	C18.001650,123.389061 18.000887,124.777885 18.000025,126.583351 
	C17.656679,127.495018 17.193363,127.667519 16.300110,127.256531 
	C14.823123,102.863037 17.844540,78.854164 18.188715,54.761654 
	C18.278336,48.488010 19.437368,42.198326 20.472145,35.977039 
	C21.929237,27.216732 27.699190,22.234734 36.829548,21.140863 
	C59.454479,18.430264 82.235863,18.325413 104.935516,16.883842 
	C118.232887,16.039375 131.514008,16.030663 144.810806,15.995389 
	C147.302856,15.988779 149.808716,15.904687 152.620239,16.823570 
	C153.193588,17.203793 153.375443,17.454487 153.590118,18.167561 
	C151.582367,22.127615 147.796310,21.454153 144.237579,22.397240 
	C141.375320,22.337633 139.194962,22.164621 136.952957,20.554407 
	C133.969818,18.411913 130.320694,20.000410 126.551483,20.450993 
	C124.811928,20.400251 123.454338,20.830395 121.718536,20.459044 
	C108.788200,20.964634 96.220009,20.935238 83.945938,24.027317 
	C83.462151,24.149193 82.959206,24.349619 82.479019,24.305485 
	C69.034454,23.069782 60.273022,31.737566 50.978367,39.225761 
	C45.125229,43.941322 40.302635,49.691685 34.969559,55.501938 
	C32.558918,56.717072 33.778656,59.474522 31.705400,60.893082 
	C26.334677,66.615417 24.214651,73.011246 23.253330,80.433922 
	C22.221071,88.404335 20.681505,96.356819 19.275400,104.673996 
z"/>
<path fill="#262626" opacity="1.000000" stroke="none" 
	d="
M103.688637,404.729309 
	C104.444641,404.998749 104.889030,404.999176 105.666710,404.999817 
	C110.735695,405.257904 115.498138,404.569885 120.608917,405.699768 
	C122.389061,405.998322 123.777885,405.999084 125.583351,405.999939 
	C126.495049,406.343262 126.667526,406.806610 126.256538,407.699890 
	C101.844315,409.178528 77.817078,406.151794 53.705933,405.806824 
	C47.427765,405.717041 41.134480,404.547394 34.908024,403.513153 
	C26.870253,402.178009 22.105179,397.582642 20.741556,389.484497 
	C19.501186,382.118378 18.496952,374.666718 18.092930,367.214569 
	C17.120848,349.284698 16.505198,331.334412 15.871145,313.387939 
	C15.689283,308.240479 15.935408,303.077881 15.987775,297.463562 
	C16.366648,296.564850 16.842798,296.375153 17.709291,296.717834 
	C18.000607,298.388794 18.001287,299.777588 18.002190,301.583008 
	C20.114399,306.544739 18.290373,311.399933 19.054625,316.523468 
	C19.000586,317.444366 19.000910,317.888763 19.001476,318.666412 
	C21.217140,323.959991 20.221443,329.441742 21.549320,334.565582 
	C22.813749,339.444611 23.717911,344.398560 24.070044,349.463074 
	C24.280804,352.494354 25.796686,355.174835 27.505362,357.684937 
	C37.643921,372.578705 50.419399,384.923248 64.552658,395.943878 
	C67.633904,398.346558 71.152092,399.787994 75.068108,400.235443 
	C84.552338,401.319122 93.849213,403.663757 103.688637,404.729309 
z"/>
<path fill="#262626" opacity="1.000000" stroke="none" 
	d="
M160.805237,16.441326 
	C163.530746,14.973091 166.202469,15.001281 168.869873,15.001225 
	C197.014771,15.000632 225.159698,14.984185 253.304504,15.032427 
	C255.613022,15.036385 257.920776,15.482494 260.619507,15.855782 
	C261.813202,19.348244 259.137146,18.389278 257.694000,18.439100 
	C252.287109,18.625757 246.870743,18.404999 240.972656,18.699581 
	C239.833786,18.767839 239.184021,18.810291 238.049408,18.890923 
	C228.964157,20.092899 220.318848,19.452145 211.698898,19.440668 
	C202.912338,19.428970 194.103912,20.096045 184.849396,18.951447 
	C183.717422,18.869080 183.069733,18.825014 181.934021,18.755249 
	C176.053513,18.425014 170.654129,18.583363 165.259872,18.467897 
	C163.627228,18.432951 161.521652,19.284538 160.805237,16.441326 
z"/>
<path fill="#262626" opacity="1.000000" stroke="none" 
	d="
M407.543884,161.814697 
	C409.026947,164.530792 408.998413,167.202515 408.998474,169.869919 
	C408.999023,198.014801 409.015411,226.159714 408.967224,254.304504 
	C408.963257,256.613037 408.517395,258.920776 408.144226,261.619507 
	C405.193909,262.775604 405.615326,260.638275 405.552551,259.139648 
	C405.394958,255.377518 405.528107,251.608490 405.426178,247.318130 
	C405.282410,221.145630 405.999390,195.492767 404.943909,169.360062 
	C405.739136,166.479340 404.342438,163.455826 407.543884,161.814697 
z"/>
<path fill="#262626" opacity="1.000000" stroke="none" 
	d="
M16.307953,171.588287 
	C16.005728,198.354294 16.005585,224.708420 16.005657,251.531174 
	C17.376879,255.363647 17.784166,258.728119 15.500622,262.052032 
	C13.973124,259.469360 14.001284,256.797638 14.001227,254.130234 
	C14.000635,225.985306 13.984182,197.840363 14.032434,169.695526 
	C14.036392,167.387024 14.482586,165.079269 14.855940,162.380554 
	C17.532923,161.509460 17.019096,163.830505 16.985182,164.756073 
	C16.907122,166.886414 17.383663,169.084534 16.307953,171.588287 
z"/>
<path fill="#262626" opacity="1.000000" stroke="none" 
	d="
M170.588287,407.692017 
	C183.023102,407.990814 195.046021,407.987549 207.538025,407.982178 
	C208.385437,407.592987 208.789001,407.234344 209.598175,406.756958 
	C210.524048,406.538666 211.071457,406.504639 212.037369,406.496246 
	C213.025284,406.489594 213.596466,406.473999 214.593872,406.511353 
	C222.701233,406.321014 230.392288,406.910431 238.568848,406.352661 
	C244.943726,406.573395 250.820908,406.413483 256.694336,406.527985 
	C258.331696,406.559906 260.414459,405.751556 261.182281,408.544739 
	C258.469299,410.026886 255.797592,409.998444 253.130173,409.998505 
	C224.985275,409.999023 196.840347,410.015442 168.695541,409.967224 
	C166.387024,409.963257 164.079285,409.517303 161.380554,409.144043 
	C160.509567,406.467133 162.830521,406.980896 163.756119,407.014801 
	C165.886444,407.092987 168.084549,406.616333 170.588287,407.692017 
z"/>
<path fill="#282828" opacity="1.000000" stroke="none" 
	d="
M261.410400,408.975586 
	C254.063934,407.032227 246.955566,408.417877 239.465698,407.994141 
	C238.466583,407.514923 238.127975,406.925537 238.137314,405.736938 
	C241.773865,402.322540 246.439926,404.041016 250.697174,402.108429 
	C256.763794,404.324219 262.713440,404.437378 268.785828,405.560364 
	C269.004486,406.461121 269.000427,406.913696 268.992249,407.706665 
	C266.595703,408.344513 264.203278,408.641998 261.410400,408.975586 
z"/>
<path fill="#282828" opacity="1.000000" stroke="none" 
	d="
M160.589661,16.024403 
	C167.600433,17.937073 174.377106,16.601797 181.534378,17.006042 
	C182.533142,17.499653 182.859665,18.100214 182.783173,19.321434 
	C181.588913,20.718517 180.428421,21.327000 179.061783,21.364866 
	C171.272232,21.580696 163.481033,21.631649 155.693634,21.321146 
	C154.210480,21.262011 152.609955,21.056824 152.772156,18.486462 
	C153.004578,17.833126 153.005798,17.657349 153.009369,17.217335 
	C155.404221,16.655581 157.796707,16.358065 160.589661,16.024403 
z"/>
<path fill="#282828" opacity="1.000000" stroke="none" 
	d="
M239.647629,17.408884 
	C246.737564,16.670498 253.530396,17.743504 260.619263,16.122910 
	C263.402863,16.288858 265.795593,16.589312 268.588257,16.921322 
	C268.989746,17.128790 268.991333,17.304701 268.994843,17.744480 
	C269.996368,19.865299 269.153015,21.087391 267.355469,21.127199 
	C258.319977,21.327303 249.245209,22.608810 239.844086,20.117018 
	C239.059570,19.162350 239.015335,18.496418 239.647629,17.408884 
z"/>
<path fill="#282828" opacity="1.000000" stroke="none" 
	d="
M406.592896,246.654419 
	C407.222504,251.744919 406.432648,256.543610 407.877441,261.620941 
	C407.711151,264.402832 407.410706,266.795563 407.078674,269.588196 
	C406.872620,269.990234 406.698120,269.992371 406.261841,269.997253 
	C403.999542,270.702271 403.602661,269.237091 403.569916,267.916840 
	C403.413086,261.595398 403.461121,255.269867 403.540619,248.947144 
	C403.560150,247.395432 404.013031,245.881821 406.592896,246.654419 
z"/>
<path fill="#262626" opacity="1.000000" stroke="none" 
	d="
M17.309647,142.581451 
	C17.001499,146.692642 16.999952,150.385010 16.998224,154.537903 
	C16.825651,155.161484 16.653261,155.324554 16.215586,155.250305 
	C14.361168,147.278717 14.643098,139.525406 15.845711,131.372665 
	C18.488928,130.478119 18.170124,133.015091 18.049261,133.714859 
	C17.561701,136.537750 18.596678,139.408310 17.309647,142.581451 
z"/>
<path fill="#262626" opacity="1.000000" stroke="none" 
	d="
M140.583511,406.692200 
	C144.692963,406.997955 148.385620,406.999023 152.538895,407.000092 
	C153.162079,407.172638 153.324677,407.345123 153.249603,407.782104 
	C145.612030,409.616699 138.192291,409.346008 130.372650,408.154297 
	C129.809692,406.260071 130.801529,406.120972 132.258301,406.132935 
	C134.898605,406.154541 137.544632,405.791992 140.583511,406.692200 
z"/>
<path fill="#262626" opacity="1.000000" stroke="none" 
	d="
M16.740719,269.756348 
	C17.000582,273.361206 17.001650,276.722412 17.002884,280.541687 
	C18.561523,285.025879 18.496599,289.054169 16.498154,293.051453 
	C14.354198,285.622253 14.681459,278.201019 15.823820,270.379578 
	C16.129562,269.829620 16.305744,269.671173 16.740719,269.756348 
z"/>
<path fill="#282828" opacity="1.000000" stroke="none" 
	d="
M15.978809,293.416748 
	C17.414249,289.416168 16.882196,285.632172 17.002331,281.453979 
	C20.382376,285.828949 18.973946,291.054718 18.131878,296.611328 
	C17.553419,297.000793 17.106913,297.001617 16.325331,297.003662 
	C15.986888,295.941559 15.983521,294.878204 15.978809,293.416748 
z"/>
<path fill="#282828" opacity="1.000000" stroke="none" 
	d="
M17.247517,142.719910 
	C16.855625,139.244537 17.417088,135.441177 16.112864,131.367645 
	C15.981049,129.918747 15.984375,128.856216 15.988977,127.394653 
	C16.436892,126.996758 16.883530,126.997910 17.665047,126.999527 
	C19.184332,132.191040 20.037590,137.371201 17.247517,142.719910 
z"/>
<path fill="#282828" opacity="1.000000" stroke="none" 
	d="
M140.720474,406.752686 
	C137.573227,407.113861 134.103302,406.649445 130.365112,407.887543 
	C128.918732,408.018982 127.856209,408.015625 126.394646,408.011047 
	C125.996758,407.563110 125.997910,407.116455 125.999527,406.334900 
	C130.860397,404.839264 135.710785,403.962494 140.720474,406.752686 
z"/>
<path fill="#282828" opacity="1.000000" stroke="none" 
	d="
M407.975616,161.589691 
	C407.182892,163.976074 407.001404,166.067230 406.999176,168.594208 
	C405.788391,170.089630 404.104858,170.274918 403.983582,168.574524 
	C403.631470,163.636063 402.045532,158.531662 405.472107,153.891190 
	C406.174408,154.001389 406.348724,154.003281 406.785034,154.008545 
	C407.344513,156.404358 407.641998,158.796783 407.975616,161.589691 
z"/>
<path fill="#282828" opacity="1.000000" stroke="none" 
	d="
M15.060718,262.317841 
	C16.200977,259.064240 15.959596,255.956879 16.004601,252.440521 
	C18.870260,256.052307 18.684017,260.216827 16.214985,264.733948 
	C15.688755,264.216492 15.410875,263.421112 15.060718,262.317841 
z"/>
<path fill="#282828" opacity="1.000000" stroke="none" 
	d="
M170.722198,407.751160 
	C167.903885,408.082489 164.771484,407.726624 161.370361,408.878479 
	C160.183914,408.767670 159.377899,408.523956 158.280487,408.156799 
	C162.024567,405.101593 166.193710,405.339691 170.722198,407.751160 
z"/>
<path fill="#282828" opacity="1.000000" stroke="none" 
	d="
M16.248791,171.722214 
	C15.917504,168.903885 16.273434,165.771484 15.121487,162.370361 
	C15.232318,161.183929 15.476049,160.377914 15.843243,159.280487 
	C18.898279,163.024597 18.660263,167.193741 16.248791,171.722214 
z"/>
<path fill="#282828" opacity="1.000000" stroke="none" 
	d="
M17.049101,269.760193 
	C16.825346,269.998230 16.651178,269.996429 16.215195,269.991333 
	C15.961410,269.240479 15.969436,268.492859 15.981283,267.371033 
	C16.798531,267.642853 17.320518,268.417480 17.049101,269.760193 
z"/>
<path fill="#282828" opacity="1.000000" stroke="none" 
	d="
M153.385651,408.041901 
	C153.009735,407.872223 153.007538,407.697815 153.002411,407.261749 
	C154.009827,406.721466 154.931015,406.812653 155.838531,407.829773 
	C155.255432,408.022247 154.507401,408.029724 153.385651,408.041901 
z"/>
<path fill="#282828" opacity="1.000000" stroke="none" 
	d="
M15.956406,155.344513 
	C16.124931,155.010422 16.299559,155.007858 16.736115,155.001862 
	C16.764067,155.582245 16.530090,156.166061 16.140490,156.876358 
	C15.977414,156.560577 15.969962,156.118301 15.956406,155.344513 
z"/>
<path fill="#2C2C2C" opacity="1.000000" stroke="none" 
	d="
M239.716934,18.922928 
	C249.402023,18.634979 258.844666,19.806120 268.606995,18.139759 
	C270.384796,18.010590 271.772766,18.012831 273.577057,18.015781 
	C275.024536,19.384968 276.355194,19.633249 278.267975,18.984976 
	C279.650421,18.892099 280.671783,19.367702 282.075500,18.990921 
	C287.875427,21.250132 293.653412,20.446632 299.237915,20.884279 
	C310.548920,21.770700 319.984467,27.189442 328.985474,33.021629 
	C358.836609,52.363609 382.208344,77.928085 399.271515,109.136375 
	C402.452484,114.954353 403.203644,121.638344 403.490479,128.248459 
	C403.663055,132.225159 403.420654,136.232758 404.805695,140.469604 
	C405.432068,141.621201 404.407501,142.581894 405.053558,143.728317 
	C403.870331,154.499039 404.033295,164.816040 404.898468,175.231613 
	C406.473938,194.198761 405.380737,213.248978 405.657166,232.261963 
	C405.819305,243.416245 402.772003,254.483185 404.005402,265.615265 
	C405.035706,274.914642 403.269836,283.900238 401.846222,292.832886 
	C400.424133,301.756317 395.148285,309.440918 390.645660,317.208984 
	C370.102264,352.650940 341.189514,379.253479 304.850189,397.908356 
	C299.252869,400.781738 293.464935,403.461792 287.001587,403.377808 
	C284.593384,403.346527 283.366974,406.270721 280.423920,405.131104 
	C277.957733,405.007355 275.917816,405.007843 273.440765,405.007690 
	C266.910400,405.810150 260.806671,404.448578 254.705627,405.089996 
	C253.702545,405.195435 252.654541,404.874268 251.347656,405.715393 
	C247.305634,405.998138 243.613205,405.998322 239.460144,405.998657 
	C231.342026,407.135620 223.622543,406.123749 215.945129,406.638885 
	C215.355255,406.678467 215.154022,407.061554 214.383652,407.634735 
	C213.550735,407.980438 213.108612,407.980713 212.334869,407.982239 
	C211.566483,407.532410 211.126755,407.091583 210.215790,407.761139 
	C209.554306,407.982849 209.112228,407.982269 208.338638,407.980865 
	C206.873520,405.389709 204.589569,405.023743 202.171249,405.044769 
	C188.349182,405.164825 174.541580,404.306366 160.740097,404.195160 
	C148.691635,404.098083 136.856522,402.263184 124.899155,401.613434 
	C116.930115,401.180420 110.310623,397.257782 103.732292,393.294617 
	C77.988403,377.785065 56.620430,357.619019 38.818298,333.402802 
	C25.752117,315.628876 20.686611,295.682800 19.968016,274.072266 
	C18.988222,244.606613 18.674280,215.134460 19.093990,185.666641 
	C19.373449,166.045685 19.944195,146.406128 22.233467,126.872292 
	C22.982019,120.485077 24.669367,114.485931 28.249275,109.064972 
	C32.286121,102.952087 34.746403,95.922394 39.268665,90.077492 
	C41.101067,87.709160 42.664722,85.126350 45.370087,83.030701 
	C46.782349,81.864601 47.760876,82.096359 48.602638,83.185638 
	C53.026970,88.910858 56.995609,94.925575 60.140316,101.458252 
	C60.366821,101.928795 60.181980,102.414017 59.747829,103.189713 
	C48.748669,119.645622 39.028122,136.440414 34.129086,155.290024 
	C29.701172,172.326904 26.492662,189.591751 26.254482,207.483643 
	C25.955921,229.911072 28.035437,252.056976 35.573158,272.917145 
	C57.570839,333.794250 99.981033,374.452179 162.564850,391.225067 
	C224.988068,407.954895 282.146484,394.987152 331.817993,353.035858 
	C369.436340,321.264343 391.216370,280.256714 395.947998,231.484909 
	C401.081238,178.573181 386.831329,130.872345 351.328217,90.309357 
	C329.234314,65.066620 302.806793,46.056454 270.675934,36.106754 
	C253.223511,30.702396 235.197998,27.657684 216.648712,27.291937 
	C193.551910,26.836523 170.994049,29.589363 149.219345,36.756897 
	C118.487053,46.872990 92.851593,65.047333 71.504814,89.328072 
	C68.664757,92.558472 66.005440,96.146019 61.086060,97.435478 
	C60.224083,97.633667 59.651337,97.687752 59.334354,97.280769 
	C53.773895,90.141495 48.138897,83.045166 45.286015,74.057816 
	C56.685345,62.150036 67.731018,50.469429 80.367661,40.392994 
	C88.769745,33.693195 98.064392,28.509560 107.716721,24.140869 
	C112.695778,21.887325 118.299675,20.382490 124.132912,20.546787 
	C128.062546,20.657473 132.098846,20.509747 136.282410,19.024738 
	C138.889923,19.259449 141.129623,18.676212 143.650131,19.710613 
	C146.752853,19.389011 149.503906,18.785419 152.629150,18.095366 
	C162.294678,20.092012 171.715820,18.507885 181.532104,19.002028 
	C182.945312,18.894974 183.058411,17.954054 183.796234,17.224726 
	C201.691406,17.023529 219.372711,17.022844 237.522034,17.023174 
	C238.647476,17.491123 238.885544,18.290945 239.716934,18.922928 
z"/>
<path fill="#757575" opacity="1.000000" stroke="none" 
	d="
M47.068382,73.647079 
	C50.782795,81.256317 55.592670,87.872787 60.282310,94.949287 
	C63.920040,96.030495 66.016479,98.357658 67.632385,101.365211 
	C71.164146,107.938606 76.599663,113.390366 79.249191,120.887848 
	C82.193153,123.503136 83.756882,126.666054 85.730247,129.974915 
	C93.413124,141.177292 100.702263,152.211670 107.619186,163.898529 
	C112.216293,170.585251 116.881248,176.819855 120.470734,184.135452 
	C127.971542,193.748062 133.800934,204.053391 140.286865,213.919754 
	C148.522964,226.448471 156.675842,239.035110 164.720490,251.689789 
	C165.707275,253.242020 166.679306,254.923279 168.253128,255.858337 
	C176.954147,261.028046 179.916504,270.547974 185.309937,278.210541 
	C186.691376,280.173187 187.124374,282.915070 185.097641,284.484192 
	C182.959335,286.139679 180.367386,285.425018 178.444489,283.368073 
	C176.581223,281.374939 174.496338,279.842194 171.730469,279.308563 
	C168.967133,278.775452 167.763062,276.404327 166.417068,274.333679 
	C153.613449,254.636642 140.793823,234.949371 128.154648,215.146713 
	C124.880333,210.016632 121.004478,205.257034 118.181915,199.435120 
	C112.414108,191.505035 107.718353,183.296356 102.383636,175.082230 
	C95.190582,164.260956 88.203270,153.723053 81.635872,142.916199 
	C80.962700,141.808456 80.517738,140.555344 78.955460,139.720581 
	C76.706169,136.602539 75.844688,133.144394 73.710587,129.932922 
	C67.639305,122.793961 63.520836,114.783691 58.515217,107.367668 
	C57.599449,106.010918 57.897995,104.796188 58.464027,103.155296 
	C54.434433,96.327820 50.242489,89.819572 45.858162,83.059311 
	C42.762169,78.282890 39.858562,73.758476 36.762154,68.969421 
	C31.925455,67.130089 30.026733,64.555054 30.019199,59.362675 
	C29.780907,57.072411 30.293432,55.624538 32.648640,54.923035 
	C34.612499,53.427937 36.032272,53.185650 37.458939,55.205219 
	C38.778896,57.073734 40.089916,58.971149 41.987022,60.912968 
	C42.670517,62.957737 43.078197,64.519226 44.410339,66.041931 
	C46.085915,67.957207 48.438557,70.060600 47.068382,73.647079 
z"/>
<path fill="#282828" opacity="1.000000" stroke="none" 
	d="
M103.750328,404.754089 
	C93.459152,405.833679 83.167236,403.309937 72.738106,402.600067 
	C66.017014,402.142609 61.512547,397.119720 56.727577,393.071747 
	C45.408035,383.495789 35.045399,373.013702 26.390442,360.878052 
	C23.192379,356.393829 21.147467,351.812744 20.943430,346.230988 
	C20.622396,337.448425 18.250557,328.806030 19.001257,319.466064 
	C22.136972,322.451294 22.256474,326.918365 22.838997,331.136078 
	C23.351400,334.846100 24.400269,338.256897 26.362812,341.412109 
	C40.643864,364.371765 59.650162,382.687958 81.843430,397.873810 
	C84.662865,399.803040 87.809265,400.625336 91.172775,401.061737 
	C95.425255,401.613495 99.807816,401.882690 103.750328,404.754089 
z"/>
<path fill="#282828" opacity="1.000000" stroke="none" 
	d="
M29.822052,59.200920 
	C32.127125,62.009983 34.184280,65.047264 36.405396,68.394669 
	C30.150530,76.999977 22.825521,84.761688 22.289209,96.202866 
	C22.155445,99.056480 21.558304,102.121300 19.245876,104.750290 
	C18.149397,94.495422 20.718538,84.244202 21.384249,73.847733 
	C21.762552,67.939713 25.755800,63.625786 29.822052,59.200920 
z"/>
<path fill="#282828" opacity="1.000000" stroke="none" 
	d="
M120.720444,405.753265 
	C116.257446,405.784393 111.463646,406.560089 106.388351,405.132019 
	C110.860443,403.839050 115.710899,402.961609 120.720444,405.753265 
z"/>
<path fill="#282828" opacity="1.000000" stroke="none" 
	d="
M18.246723,121.720459 
	C18.215063,117.257408 17.439838,112.463615 18.868202,107.388344 
	C20.160837,111.860466 21.038370,116.710953 18.246723,121.720459 
z"/>
<path fill="#282828" opacity="1.000000" stroke="none" 
	d="
M19.131950,316.612488 
	C17.357500,312.402466 18.225191,307.626678 18.001812,302.464020 
	C21.294613,306.486786 19.975616,311.382782 19.131950,316.612488 
z"/>
<path fill="#2A2A2A" opacity="1.000000" stroke="none" 
	d="
M280.202820,405.232056 
	C285.804382,400.747528 293.171936,400.608459 299.485046,397.516937 
	C317.548492,388.671234 334.148987,377.766510 349.178528,364.377289 
	C367.696594,347.880219 381.876892,328.133270 393.650208,306.469940 
	C399.761841,295.224335 402.604645,283.139954 402.902466,270.521606 
	C403.511139,244.728424 404.422150,218.938309 404.044312,193.125504 
	C403.844574,179.478958 402.356354,165.869156 402.990234,152.202820 
	C403.105804,149.711258 402.916382,147.198059 403.864441,144.389633 
	C404.359741,143.548874 404.826294,143.374542 405.696167,143.739197 
	C405.997559,147.031723 405.998810,150.061615 406.000061,153.545502 
	C404.838898,158.859741 403.964294,163.709915 406.750366,168.720154 
	C406.994537,194.687500 406.994934,220.374954 406.994690,246.531097 
	C403.301025,254.221069 405.175323,261.757629 405.867859,269.609894 
	C405.999207,272.699982 405.998322,275.399933 405.997253,278.549866 
	C403.860901,282.708618 405.391205,286.757538 405.019775,290.631317 
	C404.851318,292.388245 404.659882,294.285645 405.040222,296.550659 
	C404.999268,298.714294 404.998535,300.428558 404.997589,302.571289 
	C402.950836,307.259033 404.438904,311.768555 404.033325,316.573181 
	C403.999664,317.444366 403.999329,317.888763 403.998688,318.666443 
	C402.001373,324.169342 402.469177,329.720215 401.650421,335.071106 
	C401.074738,338.833344 399.995758,342.199005 397.825043,345.193542 
	C382.860474,365.837524 365.028290,383.617889 344.455322,398.687836 
	C337.812897,403.553497 329.963837,402.680359 322.537292,403.920898 
	C321.221497,404.140686 319.803253,403.627563 318.293396,404.737640 
	C317.555328,404.998749 317.110931,404.999176 316.333282,404.999786 
	C311.560150,405.173431 307.096069,404.611450 302.338715,405.717865 
	C300.610901,405.998108 299.222107,405.998901 297.416656,405.999817 
	C292.560150,406.172150 288.096222,405.612366 283.338806,406.717529 
	C282.135803,406.483673 281.271851,405.970459 280.202820,405.232056 
z"/>
<path fill="#282828" opacity="1.000000" stroke="none" 
	d="
M318.466766,404.998749 
	C321.867950,401.907043 326.655884,401.705078 331.203217,401.214569 
	C335.509674,400.750031 339.164032,399.362823 342.630585,396.821564 
	C362.218170,382.462433 379.306305,365.616302 393.925781,346.209747 
	C397.525574,341.431213 400.095703,336.584717 400.464417,330.424255 
	C400.686096,326.721100 401.191284,322.779114 403.757111,319.257019 
	C404.911530,329.554840 402.221619,339.842285 401.635620,350.289459 
	C401.424805,354.048279 399.395538,357.212555 397.101288,360.130829 
	C385.946533,374.319550 373.250244,386.966064 359.086121,398.148560 
	C355.163940,401.245117 350.781219,402.801117 345.749695,403.023865 
	C336.796082,403.420319 327.985931,405.838593 318.466766,404.998749 
z"/>
<path fill="#2A2A2A" opacity="1.000000" stroke="none" 
	d="
M251.466187,405.998383 
	C254.871490,402.716858 259.489319,404.232208 263.809448,404.139893 
	C266.580292,404.080658 269.364868,404.663727 272.573486,404.982971 
	C271.900360,405.312164 270.797058,405.617279 269.351135,405.965454 
	C263.317139,406.005280 257.625702,406.002045 251.466187,405.998383 
z"/>
<path fill="#282828" opacity="1.000000" stroke="none" 
	d="
M405.132263,296.610291 
	C403.798035,291.147339 402.914673,285.303955 405.752319,279.280792 
	C405.725067,284.738922 406.662140,290.529388 405.132263,296.610291 
z"/>
<path fill="#282828" opacity="1.000000" stroke="none" 
	d="
M404.131927,316.612366 
	C402.835571,312.468506 402.036560,307.950897 404.753601,303.278564 
	C404.808563,307.411194 405.516205,311.872314 404.131927,316.612366 
z"/>
<path fill="#282828" opacity="1.000000" stroke="none" 
	d="
M302.461609,405.997925 
	C306.143402,402.790680 310.707916,404.000183 315.613708,404.868469 
	C311.735840,406.572571 307.293427,405.810516 302.461609,405.997925 
z"/>
<path fill="#282828" opacity="1.000000" stroke="none" 
	d="
M283.461670,406.997559 
	C287.143616,403.791321 291.707977,405.000610 296.613647,405.868500 
	C292.735779,407.571777 288.293518,406.811096 283.461670,406.997559 
z"/>
<path fill="#2A2A2A" opacity="1.000000" stroke="none" 
	d="
M404.336853,140.686066 
	C402.131561,139.211349 401.905457,136.871262 402.038208,134.522583 
	C402.682861,123.117058 399.186310,113.038567 393.208649,103.399132 
	C376.294586,76.123947 355.122681,52.940228 328.074860,35.540989 
	C315.753052,27.614664 302.910004,20.274279 287.224762,21.916515 
	C285.561401,22.090666 283.907166,21.645615 282.277557,20.247986 
	C286.198700,17.799257 290.745239,19.681252 295.533783,18.950897 
	C297.714294,19.000694 299.428558,19.001444 301.571289,19.002399 
	C306.259064,21.048510 310.768555,19.561195 315.573181,19.966860 
	C316.444366,20.000582 316.888763,20.000902 317.666443,20.001461 
	C322.019318,21.939827 326.429840,21.360636 330.657928,21.868694 
	C335.577972,22.459898 340.012268,23.977636 344.218933,26.630236 
	C366.381042,40.605049 383.730103,59.397884 398.710754,80.608192 
	C401.085144,83.969940 401.673096,87.857689 402.035431,91.738083 
	C402.926575,101.282478 404.147705,110.801727 404.732971,120.697639 
	C404.998199,122.714539 404.999054,124.428825 404.999939,126.571556 
	C404.787048,131.453613 405.325043,135.925415 404.336853,140.686066 
z"/>
<path fill="#282828" opacity="1.000000" stroke="none" 
	d="
M404.997925,120.533836 
	C403.444519,119.494492 402.939636,117.563095 403.063599,115.520042 
	C403.606262,106.578003 400.643738,98.088097 399.760529,89.332115 
	C399.521942,86.967102 398.484772,84.868065 397.135223,82.929604 
	C381.779816,60.873711 363.711731,41.588573 340.622498,27.388556 
	C337.574860,25.514233 334.380615,24.443655 330.868652,23.861532 
	C326.653748,23.162895 322.187561,23.199297 318.251343,20.246655 
	C328.562469,19.089294 338.896057,21.428799 349.301239,22.453367 
	C358.069336,23.316740 363.817963,30.233736 370.379456,35.205589 
	C380.668854,43.002174 388.652069,53.101040 396.753357,63.032524 
	C400.129028,67.170830 401.504089,71.950600 402.080353,77.273514 
	C403.621246,91.507027 404.932037,105.740211 404.997925,120.533836 
z"/>
<path fill="#282828" opacity="1.000000" stroke="none" 
	d="
M295.610291,18.867683 
	C291.735199,20.572603 287.291351,19.807112 282.458679,20.002285 
	C280.930450,20.002834 279.864594,20.002695 278.398926,20.002392 
	C277.504486,19.662220 277.330048,19.201084 277.737305,18.311127 
	C283.738220,18.274441 289.529022,17.337612 295.610291,18.867683 
z"/>
<path fill="#282828" opacity="1.000000" stroke="none" 
	d="
M403.997498,141.378082 
	C404.195984,136.591537 403.483002,132.128510 404.868225,127.387650 
	C406.758759,132.267242 405.710571,137.708832 405.997192,143.534637 
	C405.551941,144.001282 405.107544,144.000732 404.329712,143.999786 
	C403.996674,143.250427 403.997040,142.501480 403.997498,141.378082 
z"/>
<path fill="#282828" opacity="1.000000" stroke="none" 
	d="
M315.612366,19.868309 
	C311.468506,21.164204 306.950836,21.963505 302.278564,19.246389 
	C306.411224,19.190990 310.872345,18.483713 315.612366,19.868309 
z"/>
<path fill="#2A2A2A" opacity="1.000000" stroke="none" 
	d="
M277.598328,18.003525 
	C277.998871,18.447577 277.998993,18.891722 277.999084,19.669046 
	C276.337921,20.575012 274.998016,20.308662 274.110016,18.287066 
	C275.061523,18.012197 276.129700,18.007906 277.598328,18.003525 
z"/>
<path fill="#282828" opacity="1.000000" stroke="none" 
	d="
M40.211296,63.244869 
	C37.096672,60.940384 36.610874,57.040787 33.312424,54.961914 
	C38.097992,46.668980 45.306877,40.506283 52.550262,34.420734 
	C56.235897,31.324232 60.233234,28.593735 64.139359,25.766434 
	C66.741119,23.883251 69.678040,22.638988 72.869621,22.310402 
	C88.564987,20.694504 104.252510,18.926392 120.533768,19.001959 
	C122.634308,22.201269 120.052917,21.553059 118.450706,21.793594 
	C113.648010,22.514618 108.897110,23.532833 104.120674,24.373632 
	C93.346451,26.270227 84.036636,31.124640 75.400757,37.567654 
	C65.378426,45.045071 56.252819,53.524982 47.569881,62.492405 
	C45.410259,64.722786 43.248032,65.717102 40.211296,63.244869 
z"/>
<path fill="#2A2A2A" opacity="1.000000" stroke="none" 
	d="
M39.976089,63.379486 
	C43.505486,62.922112 45.903782,60.652740 48.264622,58.247929 
	C59.211967,47.096714 70.589638,36.502602 84.292671,28.660656 
	C93.023308,23.664305 102.348061,21.315159 112.300117,20.993788 
	C115.079086,20.904049 117.996811,21.452936 120.719498,19.247143 
	C122.389030,19.001604 123.777878,19.000816 125.583359,18.999987 
	C129.145798,19.102499 132.309845,18.673412 135.720551,19.663614 
	C133.909454,22.169401 131.174652,22.025433 128.520432,21.980188 
	C119.612106,21.828339 111.781540,24.789251 103.846382,28.787506 
	C85.976234,37.791664 71.426674,50.757351 57.611507,64.828545 
	C54.485470,68.012520 51.735069,71.679695 47.275757,73.876465 
	C44.671135,70.576553 42.380276,67.141342 39.976089,63.379486 
z"/>
<path fill="#282828" opacity="1.000000" stroke="none" 
	d="
M136.448074,20.003220 
	C132.909592,19.918236 129.779877,20.269491 126.379639,19.130642 
	C131.852844,17.795523 137.696274,16.916887 143.720703,19.748222 
	C141.631836,19.996096 139.261856,19.999584 136.448074,20.003220 
z"/>
<path fill="#2A2A2A" opacity="1.000000" stroke="none" 
	d="
M239.998978,18.669403 
	C239.002151,18.942318 238.420349,18.378578 238.059814,17.242899 
	C238.436096,17.019621 238.882111,17.015055 239.662537,17.008659 
	C239.997543,17.450161 239.998138,17.893492 239.998978,18.669403 
z"/>
<path fill="#2A2A2A" opacity="1.000000" stroke="none" 
	d="
M183.675568,17.020191 
	C183.751236,17.886833 183.446274,18.711103 182.210205,18.968189 
	C182.001221,18.558516 182.001633,18.115088 182.002548,17.339245 
	C182.449036,17.009943 182.895020,17.013058 183.675568,17.020191 
z"/>
<path fill="#2A2A2A" opacity="1.000000" stroke="none" 
	d="
M214.462128,407.983612 
	C214.832123,406.109711 216.341309,405.149841 218.326630,405.147705 
	C224.962280,405.140656 231.624680,404.343323 238.609406,405.866791 
	C238.999023,406.442078 238.998535,406.885376 238.997498,407.661011 
	C230.975098,407.991241 222.953247,407.989136 214.462128,407.983612 
z"/>
<path fill="#2A2A2A" opacity="1.000000" stroke="none" 
	d="
M210.330872,407.984558 
	C210.516815,407.429077 211.078842,407.174042 211.879074,407.861206 
	C211.557312,407.984253 211.111328,407.984955 210.330872,407.984558 
z"/>
<path fill="#2F2F2F" opacity="1.000000" stroke="none" 
	d="
M78.322243,122.232956 
	C72.230019,113.363907 66.509094,104.604446 60.630703,95.528351 
	C64.244919,93.831070 66.707039,90.864006 69.231956,87.975403 
	C92.487427,61.370361 120.609047,41.744740 154.687576,32.224342 
	C188.198532,22.862499 222.119171,22.603516 256.533630,29.634150 
	C325.203217,43.662865 390.295898,109.019066 398.510742,190.767319 
	C403.876099,244.159485 390.162750,292.524200 354.745911,333.863708 
	C322.642090,371.336090 282.112823,394.070801 233.190628,399.306763 
	C179.100327,405.095825 130.146988,391.260895 88.401863,355.032410 
	C62.129650,332.232117 42.457409,304.900543 32.248352,271.559845 
	C27.046680,254.572205 24.112562,237.029251 23.779879,218.968292 
	C23.339342,195.052246 25.985298,171.726929 33.263729,149.022079 
	C38.065468,134.043213 45.308140,120.135185 54.218739,107.133751 
	C55.261871,105.611717 56.301510,104.110283 58.300476,103.018494 
	C64.126724,111.251808 69.973137,119.448387 74.815735,128.657349 
	C75.292572,131.571289 74.284821,133.707993 73.088570,135.921082 
	C58.807026,162.342438 51.876308,190.612366 53.678520,220.582123 
	C55.737629,254.823807 67.525558,285.658417 89.487160,312.166504 
	C118.206169,346.830872 155.606171,365.582764 200.159973,369.124084 
	C234.008102,371.814453 265.781342,363.647949 294.526550,345.356934 
	C337.472015,318.030090 361.782440,278.632751 367.427032,228.234299 
	C372.371277,184.089172 359.715607,144.678619 331.409363,110.671272 
	C304.353058,78.165573 269.153503,59.973255 227.195526,55.524723 
	C183.021637,50.841251 143.922668,63.644661 109.541557,91.500237 
	C99.624420,99.535095 91.294632,109.010040 83.666939,119.170868 
	C82.444656,120.799057 81.579018,123.222305 78.322243,122.232956 
z"/>
<path fill="#333333" opacity="1.000000" stroke="none" 
	d="
M106.311829,165.156281 
	C98.241280,154.278305 91.055496,143.115646 84.239304,131.342163 
	C84.047890,127.899361 85.450890,125.358574 87.219727,123.007874 
	C114.333801,86.974586 149.904419,65.339355 195.005768,60.452282 
	C237.046219,55.896889 274.794464,67.328903 307.301147,93.966003 
	C339.318848,120.202446 358.146545,154.308258 362.560638,195.813019 
	C366.950195,237.086853 356.142731,274.305237 330.386658,306.582062 
	C303.961945,339.696838 269.345062,359.111115 226.886002,363.581970 
	C185.208252,367.970673 147.737305,356.815643 115.386848,330.601166 
	C82.932106,304.302185 63.997501,269.949493 59.400677,228.088776 
	C56.067642,197.736694 61.664730,169.073990 75.652054,142.011108 
	C76.625687,140.127319 77.017181,137.259750 80.665916,137.763245 
	C88.693352,149.563034 96.335396,161.253708 104.085938,173.257767 
	C104.882881,179.951935 102.267899,185.811386 101.226875,191.913101 
	C95.326073,226.499496 103.218513,257.588593 125.741074,284.385925 
	C162.354523,327.948578 226.166855,336.002991 272.214600,304.974670 
	C302.913086,284.289124 319.180725,255.142334 321.435364,218.444916 
	C324.977173,160.796890 284.063354,109.584419 224.153076,101.880951 
	C180.625031,96.283981 135.860748,117.579651 113.753777,157.093216 
	C112.049110,160.140091 111.528542,164.688889 106.311829,165.156281 
z"/>
<path fill="#262626" opacity="1.000000" stroke="none" 
	d="
M119.508499,197.778717 
	C136.568130,222.247696 151.895599,247.390778 168.143951,271.931824 
	C169.661163,274.223419 170.587646,276.789062 174.656372,275.488464 
	C177.064133,274.718811 177.471802,278.589844 179.011505,280.166595 
	C180.173904,281.356964 180.630325,284.216949 182.961029,282.838623 
	C185.803421,281.157684 183.144318,279.343719 182.266083,277.897125 
	C179.418900,273.207489 176.397247,268.620819 173.344589,264.060242 
	C172.058517,262.138885 171.435165,259.348297 167.891525,260.161652 
	C166.563019,260.466553 165.916336,258.556183 165.225250,257.485443 
	C149.796097,233.579391 134.404831,209.648911 118.886246,185.392395 
	C120.752609,173.027969 126.781952,162.839157 134.015137,153.431198 
	C147.678268,135.660080 164.630890,122.323616 187.026871,117.414406 
	C218.724106,110.466354 247.897110,115.675911 273.597046,136.372604 
	C276.946289,139.069794 280.736816,141.184555 283.289368,144.902374 
	C304.314911,175.526459 313.875214,208.309677 301.252289,244.816254 
	C293.308258,267.791168 278.072479,284.990814 256.910400,296.930084 
	C248.158463,301.867767 238.912125,306.005554 229.163544,307.994049 
	C213.825623,311.122620 198.399643,310.271271 183.201385,306.003632 
	C166.109192,301.204132 151.142075,292.314301 138.751419,280.087738 
	C128.193985,269.670105 119.674232,256.892639 116.594971,242.128693 
	C114.839775,233.713181 114.340034,224.700607 114.490547,215.872894 
	C114.570068,211.208710 114.189743,206.516251 114.670029,201.888931 
	C114.902527,199.648956 114.809601,195.960526 119.508499,197.778717 
z"/>
<path fill="#2D2D2D" opacity="1.000000" stroke="none" 
	d="
M119.776688,197.690536 
	C117.515816,199.658295 117.085091,202.092331 117.060608,204.661240 
	C116.986015,212.487656 117.470963,220.284103 117.879379,228.099518 
	C118.511459,240.194717 121.167992,251.441681 127.870621,261.523712 
	C150.231812,295.159119 182.304901,311.116974 221.789001,306.242706 
	C261.308563,301.364044 296.798401,271.207672 303.004944,226.190445 
	C306.223572,202.845322 302.402344,181.075226 289.203827,161.261078 
	C286.554718,157.284149 286.328461,152.356461 282.796814,148.486938 
	C269.948517,134.409439 254.584961,124.879028 236.089920,120.374107 
	C210.556976,114.154953 185.857300,116.207504 163.266098,130.069107 
	C144.812485,141.391968 131.301285,157.504211 123.266663,177.874603 
	C122.298393,180.329483 121.792206,183.057999 119.060272,184.865891 
	C114.530968,178.640060 110.295860,172.218399 105.994354,165.456711 
	C112.924980,153.382843 119.722740,141.525024 129.632095,131.846039 
	C149.850891,112.097290 173.896286,100.898766 202.179749,98.898750 
	C237.806213,96.379501 268.097992,108.212868 292.865875,133.554657 
	C310.517334,151.615128 320.945526,173.582138 323.560608,198.834335 
	C327.846832,240.223831 314.110718,274.856689 282.025696,301.157715 
	C239.463486,336.047150 177.623871,334.646729 136.128448,298.504425 
	C110.385544,276.082489 97.095322,247.645004 96.951492,213.237320 
	C96.895248,199.780640 98.004036,186.624878 104.002647,173.908264 
	C109.371223,181.498566 114.548019,189.425980 119.776688,197.690536 
z"/>
<path fill="#545454" opacity="1.000000" stroke="none" 
	d="
M80.918686,137.561432 
	C70.633240,154.762939 64.932938,173.294617 62.334415,192.815842 
	C51.980042,270.602417 104.904549,344.122406 181.926727,359.088959 
	C269.245789,376.056335 351.501923,314.748444 360.161194,226.245682 
	C368.189575,144.190643 307.671082,70.188461 225.748856,63.024303 
	C168.420822,58.010921 122.724289,79.919083 88.335747,125.834953 
	C87.138893,127.433006 85.906532,129.004471 84.442352,130.794128 
	C81.614723,128.670883 80.093994,125.578186 78.090591,122.428162 
	C84.912308,113.629013 91.551270,104.898239 99.419403,97.137726 
	C160.414078,36.977188 261.699127,36.986053 322.637085,97.280815 
	C383.985443,157.981659 387.542938,253.234741 330.888123,318.205170 
	C274.821259,382.501312 174.450073,390.285889 109.016068,335.413025 
	C49.940006,285.871887 33.953732,204.132980 70.075592,136.132568 
	C71.318138,133.793457 72.918335,131.644333 74.610367,129.203491 
	C77.640137,131.177444 78.998154,134.368134 80.918686,137.561432 
z"/>
<path fill="#BD3F2A" opacity="1.000000" stroke="none" 
	d="
M181.668579,223.387695 
	C176.316010,208.837891 180.206024,194.470749 191.569870,185.883850 
	C202.697708,177.475266 218.469391,177.548233 229.723618,186.060379 
	C240.815048,194.449402 245.199570,209.131592 239.970856,222.294556 
	C235.030151,234.732437 225.542068,241.804031 212.139114,242.371811 
	C198.124207,242.965515 187.939240,236.445038 181.668579,223.387695 
z"/>
<path fill="#F55432" opacity="1.000000" stroke="none" 
	d="
M195.080582,233.980255 
	C186.508575,225.960007 179.916550,217.409760 182.742798,204.986465 
	C187.047760,186.063217 207.725082,177.578369 224.909409,187.635284 
	C237.205795,194.831589 242.276306,208.081375 237.658752,220.950699 
	C233.151993,233.511230 219.546646,241.073929 205.883087,238.679352 
	C202.008118,238.000229 198.688782,236.128311 195.080582,233.980255 
z"/>
</svg>